<?xml version="1.0" encoding="UTF-8" standalone="no"?>
<!-- Created with Inkscape (http://www.inkscape.org/) -->

<svg
   width="250mm"
   height="250mm"
   viewBox="0 0 250 250"
   version="1.1"
   id="svg1"
   xml:space="preserve"
   inkscape:version="1.3 (0e150ed6c4, 2023-07-21)"
   sodipodi:docname="logo-inkscape.svg"
   xmlns:inkscape="http://www.inkscape.org/namespaces/inkscape"
   xmlns:sodipodi="http://sodipodi.sourceforge.net/DTD/sodipodi-0.dtd"
   xmlns="http://www.w3.org/2000/svg"
   xmlns:svg="http://www.w3.org/2000/svg"><sodipodi:namedview
     id="namedview1"
     pagecolor="#505050"
     bordercolor="#eeeeee"
     borderopacity="1"
     inkscape:showpageshadow="0"
     inkscape:pageopacity="0"
     inkscape:pagecheckerboard="0"
     inkscape:deskcolor="#505050"
     inkscape:document-units="mm"
     inkscape:zoom="0.72426347"
     inkscape:cx="465.30029"
     inkscape:cy="506.03132"
     inkscape:window-width="1920"
     inkscape:window-height="1009"
     inkscape:window-x="-8"
     inkscape:window-y="-8"
     inkscape:window-maximized="1"
     inkscape:current-layer="layer1" /><defs
     id="defs1"><inkscape:path-effect
       effect="fillet_chamfer"
       id="path-effect1"
       is_visible="true"
       lpeversion="1"
       nodesatellites_param="F,1,0,1,0,0.27,0,1 @ F,1,0,1,0,0.27,0,1 @ F,1,0,1,0,0.27,0,1 @ F,1,0,1,0,0.27,0,1"
       radius="27"
       unit="px"
       method="auto"
       mode="F"
       chamfer_steps="1"
       flexible="true"
       use_knot_distance="true"
       apply_no_radius="true"
       apply_with_radius="true"
       only_selected="false"
       hide_knots="false" /></defs><g
     inkscape:label="Layer 1"
     inkscape:groupmode="layer"
     id="layer1"><path
       style="display:none;fill:#ffffff;fill-opacity:1;stroke:#000000;stroke-width:13.3664;stroke-linecap:round;stroke-miterlimit:128.2;stroke-dasharray:none;stroke-opacity:1;paint-order:markers stroke fill"
       id="rect1"
       width="250"
       height="250"
       x="0"
       y="0"
       inkscape:path-effect="#path-effect1"
       sodipodi:type="rect"
       d="m 67.5,0 h 115 A 67.5,67.5 45 0 1 250,67.5 v 115 A 67.5,67.5 135 0 1 182.5,250 H 67.5 A 67.5,67.5 45 0 1 0,182.5 V 67.5 A 67.5,67.5 135 0 1 67.5,0 Z"
       transform="matrix(0.96911981,0,0,0.96886786,3.875958,3.8754524)"
       sodipodi:insensitive="true" /><g
       id="g1"
       transform="matrix(1.4449293,0,0,1.4449293,-24.50025,-89.684786)"
       style="stroke-width:0;stroke-dasharray:none"><path
         id="4"
         d="m 157.50795,101.75659 c 0.1098,0.46091 0.20664,17.74508 0.21511,38.40903 0.0127,30.89196 -0.0482,37.74864 -0.34158,38.57149 -0.57415,1.6092 -1.49543,2.78448 -3.19167,4.0722 -6.31772,4.79584 -20.10622,8.16875 -37.16258,9.09003 -2.83131,0.15293 -5.21256,0.34396 -5.29167,0.42439 -0.0791,0.0804 -0.10901,1.45574 -0.0667,3.05594 0.0944,3.57187 -0.27808,6.418 -1.05754,8.08355 -0.79772,1.70444 -2.803,3.65469 -4.64556,4.51829 -0.50588,0.23706 -1.01176,0.47413 -1.51765,0.7112 -5.753097,0.0251 -11.506461,0.05 -17.259561,0.0751 -14.881225,0.0648 -17.364869,0.0212 -18.022623,-0.31909 -1.328737,-0.68712 -6.941873,-7.19719 -10.579364,-12.26952 -9.242425,-12.88838 -11.322315,-20.92484 -7.695936,-29.73441 3.081867,-7.48691 10.965127,-12.66375 19.261667,-12.64867 1.400175,0.003 3.379258,0.19024 4.397904,0.41725 1.018646,0.22701 1.99046,0.43339 2.159529,0.45853 0.311679,0.0463 10.819606,-11.40487 10.634927,-11.58955 -0.0553,-0.0553 -1.016264,-0.6985 -2.135717,-1.42928 -2.409295,-1.57268 -3.12076,-2.68049 -3.113881,-4.85034 0.0056,-1.75683 0.784225,-3.2086 2.288381,-4.26561 1.01944,-0.71649 1.865048,-0.90144 11.903869,-2.60139 6.976535,-1.18136 11.294005,-1.79546 12.181945,-1.73249 2.76622,0.19579 4.57809,2.31934 4.57756,5.36522 -2.7e-4,1.75366 -1.50337,20.17104 -1.74758,21.41379 -0.52149,2.65351 -3.09483,4.58655 -5.69568,4.27858 -1.87325,-0.22172 -2.79665,-0.84508 -4.39632,-2.96625 -0.76385,-1.01282 -1.500715,-1.8415 -1.63724,-1.8415 -0.136525,0 -0.940329,0.78952 -1.786202,1.75446 -0.845872,0.96493 -3.115997,3.48297 -5.045339,5.59593 -1.169194,1.28059 -2.338388,2.56091 -3.507581,3.84149 0.164306,0.38365 0.328348,0.76729 0.492654,1.15094 1.606021,3.75047 1.965854,8.98631 0.87921,12.7926 -1.755775,6.15051 -5.766064,13.09502 -12.195968,21.1201 -1.611842,2.01163 -2.930525,3.7084 -2.930525,3.77031 0,0.25982 27.162921,0.0979 28.119121,-0.16774 1.24883,-0.34687 2.63975,-1.54729 3.22712,-2.78527 0.35534,-0.74904 0.458,-1.80816 0.49239,-5.09164 0.0146,-1.38192 0.0291,-2.76384 0.0437,-4.14576 -1.05833,-0.0624 -2.11667,-0.12462 -3.175,-0.18706 -11.105356,-0.65378 -12.594696,-0.8591 -13.102431,-1.80763 -0.464344,-0.86784 -0.295011,-1.98041 0.401637,-2.63472 0.220134,-0.20691 0.440532,-0.41381 0.660665,-0.62072 1.301221,0.10451 2.602177,0.20876 3.903398,0.31327 23.533361,1.8886 48.880711,-1.9087 56.222901,-8.42248 0.37544,-0.33311 0.75089,-0.66622 1.12633,-0.99933 0.0251,-3.18506 0.0505,-6.37064 0.0757,-9.55569 0.0415,-5.25542 0.031,-9.55543 -0.0238,-9.55543 -0.0548,0 -1.26815,0.59505 -2.69664,1.32239 -5.92613,3.01704 -15.1503,5.24007 -27.12085,6.53521 -3.44381,0.37253 -6.61061,0.47254 -14.99578,0.47439 -10.387017,0.002 -10.647102,-0.0103 -11.377088,-0.55324 -0.876564,-0.6522 -1.148556,-2.28335 -0.523346,-3.13769 0.365655,-0.49954 0.785548,-0.51965 11.587164,-0.55431 8.28701,-0.0267 12.20787,-0.14631 15.04447,-0.45905 14.31661,-1.57903 25.05234,-4.70164 28.90573,-8.40713 0.41884,-0.40296 0.83794,-0.80566 1.25677,-1.20862 v -9.57368 c 0,-5.26548 -0.0659,-9.57369 -0.14631,-9.57369 -0.0804,0 -0.58632,0.29898 -1.12422,0.66437 -3.4917,2.37252 -13.76389,5.38189 -22.54197,6.60374 -4.93421,0.68686 -11.37655,1.1856 -12.04277,0.93239 -0.75751,-0.28813 -1.45098,-1.25677 -1.45098,-2.02697 0,-0.32332 0.27041,-0.90223 0.60087,-1.28641 0.56012,-0.65114 0.81571,-0.7149 3.77031,-0.93795 14.45102,-1.09114 27.22642,-4.49685 31.67645,-8.44497 0.37544,-0.33311 0.75089,-0.66622 1.12633,-0.99933 0.0254,-3.14113 0.0503,-6.28226 0.0757,-9.4234 0.0418,-5.18266 -0.003,-9.42313 -0.10001,-9.42313 -0.0968,0 -0.78555,0.34369 -1.53088,0.76385 -6.01451,3.39037 -17.86096,5.99704 -31.51214,6.93367 -5.9354,0.40719 -21.670169,0.16854 -26.860765,-0.40746 -11.067521,-1.22819 -20.124208,-3.4118 -25.414287,-6.12801 -1.244865,-0.63924 -2.350294,-1.16205 -2.456921,-1.16205 -0.106627,0 -0.159808,4.24047 -0.118004,9.42313 0.0254,3.14114 0.05027,6.28227 0.07567,9.4234 0.393435,0.34925 0.787135,0.69797 1.180571,1.04722 1.429279,1.26789 4.554008,2.80988 7.947554,3.92139 3.525043,1.15464 4.478073,2.38152 3.155685,4.06268 -0.423862,0.53896 -0.78105,0.69718 -1.574271,0.69718 -1.28561,0 -5.256741,-1.42373 -8.202083,-2.94085 -1.233752,-0.63553 -2.332302,-1.19618 -2.44131,-1.24592 -0.109009,-0.0497 -0.342553,3.48483 -0.198438,7.84966 l 0.418461,12.67398 c -0.232304,0.18283 -0.879617,2.17801 -1.912282,0.50569 -1.144323,0.90011 -1.839284,2.18994 -2.371626,0.90513 -0.203994,-0.49239 -0.360213,-13.99114 -0.308619,-30.58528 0.02434,-7.84754 0.04868,-15.69508 0.07303,-23.54262 0.192616,-0.3601 0.385233,-0.71993 0.57785,-1.08003 3.439054,-6.425936 19.753526,-11.161184 41.335325,-11.997267 17.14817,-0.664369 34.72285,1.505744 44.88338,5.541962 5.6433,2.241815 8.67304,4.74398 9.39033,7.755465 z M 53.932836,170.725 c -0.624682,2.37887 -0.523611,5.656 0.258233,8.37089 1.273704,4.42251 4.614069,10.38304 9.248246,16.50232 2.982118,3.9378 6.493933,7.97455 6.83895,7.8613 0.496887,-0.16298 4.279106,-4.56221 6.650831,-7.73562 4.813829,-6.44102 7.669477,-11.41465 9.17866,-15.98559 0.715169,-2.16615 0.83529,-2.91254 0.832379,-5.17684 -0.004,-3.0615 -0.760148,-5.72664 -2.402416,-8.46402 -2.147888,-3.58034 -6.09653,-6.48044 -10.280915,-7.55068 -8.795279,-2.24949 -17.980289,3.25437 -20.323968,12.17824 z m 12.825147,-69.62801 c -1.41261,1.34355 -1.427956,2.16667 -0.06509,3.46313 5.210969,4.95697 23.130404,8.47698 43.179207,8.48201 16.39914,0.004 30.71072,-2.28653 39.10383,-6.25793 2.32542,-1.1004 4.28784,-2.86676 4.28784,-3.85921 0,-2.78024 -7.85019,-6.175108 -19.05,-8.238329 -8.95588,-1.649677 -15.748,-2.128044 -27.46534,-1.93384 -11.060115,0.183092 -15.32414,0.594519 -23.876002,2.302934 -7.481094,1.494366 -13.841412,3.879056 -16.114448,6.041235 z m 16.879623,52.5219 c -1.432983,1.57851 -2.605087,2.90777 -2.605087,2.95355 0,0.0458 0.763323,0.62785 1.696243,1.29355 0.932921,0.66569 2.230967,1.82165 2.884488,2.56857 0.687652,0.78608 1.313127,1.28085 1.485106,1.17449 0.163513,-0.10108 2.63181,-2.76437 5.485077,-5.91873 6.351587,-7.02152 6.249987,-6.92574 7.354094,-6.92574 1.035583,0 1.627453,0.60299 3.839893,3.91054 0.79534,1.18904 1.61581,2.227 1.82325,2.30664 0.61648,0.23654 1.34964,-0.12647 1.50442,-0.7448 0.37359,-1.49251 1.89203,-20.98622 1.6682,-21.41352 -0.13335,-0.25453 -0.51091,-0.46302 -0.83873,-0.46302 -1.34356,0 -20.884887,3.43138 -21.245514,3.73062 -0.85778,0.712 -0.285486,1.38324 2.790295,3.27448 3.198548,1.96639 3.719777,2.59424 3.228711,3.88594 -0.136525,0.35878 -1.646767,2.19234 -3.356504,4.07485 -1.709738,1.88251 -4.281223,4.71408 -5.713942,6.29258 z"
         fill="#000000"
         stroke="none"
         style="display:inline;stroke-width:0;stroke-dasharray:none"
         sodipodi:nodetypes="ccccsscccccccccscscccccccccsscccccscccccccccsccscccccccccsscccsscsccsccccscccccsccsccscccccccccscssccccscccscccsscsscccsscssscccsc" /><path
         id="path4"
         d="m 79.891635,172.3125 c 1.197504,4.1439 -1.322387,9.4107 -5.421841,11.3321 -1.334029,0.62521 -1.826419,0.70644 -4.285192,0.70565 -2.298964,-5.3e-4 -2.995083,-0.10081 -4.03516,-0.5805 -1.753923,-0.80883 -4.022461,-3.04112 -4.893204,-4.81383 -0.654844,-1.3335 -0.728927,-1.76583 -0.728927,-4.26217 0,-2.45798 0.08149,-2.95196 0.706437,-4.28546 1.976702,-4.21719 7.130521,-6.63389 11.479742,-5.38374 3.633787,1.04458 6.096529,3.54489 7.178145,7.28795 z m -14.717712,-0.20452 c -0.455613,0.89746 -0.55536,1.4851 -0.483129,2.85035 0.105569,1.99575 0.890587,3.41154 2.494227,4.49792 0.830792,0.56277 1.278467,0.66146 2.999581,0.66146 1.771121,0 2.16191,-0.0918 3.138488,-0.73819 3.07975,-2.03809 3.475831,-5.97059 0.871537,-8.65479 -2.818077,-2.90486 -7.183173,-2.23546 -9.020704,1.38325 z"
         fill="#000000"
         stroke="none"
         style="display:inline;stroke-width:0;stroke-dasharray:none" /></g><path
       style="fill:#87dcff;fill-opacity:1;stroke:#000000;stroke-width:39.24283514;stroke-linecap:round;stroke-miterlimit:128.2;stroke-dasharray:none;stroke-opacity:1;paint-order:markers stroke fill"
       d="m 321.70613,776.81296 c 0,-0.37381 7.18201,-9.88296 15.96002,-21.13147 31.42471,-40.26888 53.12926,-76.95092 62.97178,-106.42621 4.29836,-12.87224 4.48584,-14.33634 4.46116,-34.83799 -0.0265,-21.95746 -0.27224,-23.35195 -8.27776,-46.96549 -0.59407,-1.75232 32.27296,-39.81514 50.49645,-58.47917 l 3.86873,-3.96228 8.35324,10.17549 c 4.59428,5.59649 10.24276,11.29058 12.5522,12.6535 5.62742,3.32106 16.02251,4.3966 23.3614,2.41712 7.73579,-2.08654 17.45771,-11.61278 19.46717,-19.07535 1.79146,-6.65298 9.71645,-99.71336 9.96262,-116.98754 0.20226,-14.19312 -1.57465,-19.78237 -8.40255,-26.43012 -7.81492,-7.60873 -13.70941,-8.32009 -39.2781,-4.74012 -30.2629,4.23722 -90.95285,14.84227 -100.23317,17.51488 -14.46752,4.16647 -23.55664,17.6927 -21.57988,32.11473 1.2279,8.95856 5.19087,14.2168 16.72325,22.18912 5.68965,3.93325 10.34482,7.62572 10.34482,8.20548 0,1.3582 -23.96751,28.37742 -41.99784,47.34533 l -14.00879,14.73722 -9.62111,-2.0825 c -10.37897,-2.24655 -35.51226,-3.07049 -43.59318,-1.42911 l -4.97708,1.01093 -0.85421,-10.72546 c -1.54698,-19.42387 -2.54326,-94.89554 -1.27648,-96.69678 0.94085,-1.33778 4.65251,-0.13306 15.82113,5.13517 29.09114,13.72223 44.61918,17.00098 50.56121,10.67597 2.93835,-3.12774 3.82503,-8.24117 2.17475,-12.54174 -1.26509,-3.29677 -8.41256,-7.17734 -22.02125,-11.95598 -15.14896,-5.3195 -34.0333,-14.95982 -41.09444,-20.97842 l -5.26275,-4.48572 -0.2601,-49.92684 c -0.14306,-27.45977 0.14158,-50.33257 0.63255,-50.82845 0.49096,-0.49588 5.77219,1.55114 11.73606,4.54893 27.59338,13.87007 70.86635,24.92311 125.44258,32.04129 31.30373,4.08284 106.65953,6.28439 147.25752,4.3022 79.06806,-3.8605 146.24389,-17.39463 183.51745,-36.97387 4.12484,-2.16671 7.96571,-4.15015 8.53525,-4.40763 0.56955,-0.25748 1.03554,22.51983 1.03554,50.61626 v 51.0844 l -8.42837,6.33572 c -26.9815,20.28235 -84.61185,35.8337 -160.9415,43.42951 -14.55635,1.44855 -27.14252,3.05178 -27.96926,3.56274 -2.71984,1.68095 -5.86496,9.27755 -5.10113,12.32097 0.41212,1.64196 2.04019,4.37098 3.61794,6.06451 2.53216,2.71796 4.24353,3.07912 14.59019,3.07912 54.05816,0 150.50701,-21.90377 178.75107,-40.5948 l 5.10154,-3.37604 0.87029,9.21382 c 0.47867,5.06761 0.87473,28.29679 0.88012,51.62042 l 0.01,42.4066 -8.62946,7.19513 c -22.6892,18.91796 -69.85382,33.1958 -143.24897,43.36484 -11.36016,1.57397 -34.93255,2.5379 -82.84278,3.38765 -36.83052,0.65321 -68.31818,1.2313 -69.97256,1.28463 -7.66738,0.2471 -10.12795,11.90042 -4.01283,19.00475 l 3.33456,3.87395 65.35592,-0.0384 c 54.16875,-0.0318 68.66469,-0.45686 84.68591,-2.48319 63.8991,-8.08178 109.72054,-19.47893 140.53635,-34.95556 7.52688,-3.78023 12.87914,-5.72092 13.65051,-4.94955 0.76059,0.76059 0.88053,21.40337 0.29942,51.53309 l -0.96946,50.26424 -7.1399,5.82909 c -42.67987,34.84426 -178.28849,54.51882 -306.46368,44.4628 l -20.63476,-1.6189 -3.18254,3.69994 c -3.17476,3.69087 -4.33558,12.11116 -2.12588,15.42049 3.17068,4.74854 13.92114,6.39924 58.8118,9.03039 l 30.18316,1.76911 -0.57013,22.83562 c -0.61676,24.70335 -1.40908,27.78581 -8.9317,34.74816 -8.29214,7.67456 -5.10675,7.38563 -86.41784,7.83823 -41.57672,0.23142 -75.59404,0.11493 -75.59404,-0.25889 z"
       id="path11"
       transform="scale(0.26458333)" /><path
       style="fill:#0088c2;fill-opacity:1;stroke:#000000;stroke-width:42.08881943;stroke-linecap:round;stroke-miterlimit:128.2;stroke-dasharray:none;stroke-opacity:1;paint-order:markers stroke fill"
       d="m 375.49624,536.289 c -3.38553,-3.48217 -10.37415,-9.48854 -15.53026,-13.34748 l -9.37476,-7.01625 4.65032,-4.94697 c 7.13642,-7.59167 43.80457,-48.25942 50.52257,-56.03336 13.75576,-15.91787 13.03535,-18.61945 -8.85186,-33.19507 -15.03656,-10.01348 -18.62055,-13.58744 -16.12655,-16.08144 1.47514,-1.47513 26.34058,-6.36214 72.77853,-14.30374 36.69552,-6.27551 45.45714,-7.17123 46.92437,-4.7972 0.91849,1.48615 -3.77107,68.8705 -6.80834,97.82914 -2.95051,28.13139 -5.27623,28.85022 -21.21903,6.55838 -9.04856,-12.65205 -12.22716,-16.08055 -16.09057,-17.35559 -4.07077,-1.34348 -5.47137,-1.20088 -9.06704,0.92313 -2.33891,1.38163 -17.6679,17.26882 -34.06443,35.30486 -16.39652,18.03605 -30.21137,32.79281 -30.69965,32.79281 -0.48829,0 -3.65777,-2.84905 -7.0433,-6.33122 z"
       id="path12"
       transform="scale(0.26458333)" /><path
       style="fill:#87dcff;fill-opacity:1;stroke:#000000;stroke-width:35.28566973;stroke-linecap:round;stroke-miterlimit:128.2;stroke-dasharray:none;stroke-opacity:1;paint-order:markers stroke fill"
       d="m 461.15815,276.71419 c -3.41727,-0.28378 -14.9117,-1.19084 -25.54319,-2.01569 -59.30947,-4.60152 -112.2685,-15.83206 -142.33384,-30.18342 -14.22292,-6.78915 -26.80351,-16.78156 -26.80351,-21.28927 0,-4.47224 9.76519,-13.12965 21.81069,-19.33645 21.77028,-11.21779 52.87758,-20.13543 94.71058,-27.15103 40.79971,-6.84232 52.94728,-7.58754 123.7228,-7.59012 54.32505,-0.002 69.06801,0.41893 85.87945,2.45179 69.39921,8.39184 126.01062,24.58665 144.0399,41.20546 7.13808,6.57965 8.02291,9.38367 4.69036,14.86362 -11.77688,19.36553 -75.06232,38.56635 -153.14764,46.46505 -20.05583,2.02874 -111.33809,3.88281 -127.0256,2.58006 z"
       id="path13"
       transform="scale(0.26458333)" /><path
       style="fill:#ffffff;fill-opacity:1;stroke:#000000;stroke-width:36.19275637;stroke-linecap:round;stroke-miterlimit:128.2;stroke-dasharray:none;stroke-opacity:1;paint-order:markers stroke fill"
       d="m 273.62584,639.28864 c -9.9061,-7.17595 -15.02788,-22.52122 -11.29354,-33.83637 3.52686,-10.68649 16.92134,-21.31799 26.92708,-21.37264 14.60548,-0.0798 28.34979,11.71973 31.69255,27.20807 1.53338,7.10472 -2.38616,18.17744 -8.50572,24.02871 -7.52581,7.19587 -9.99355,8.09586 -22.19855,8.09586 -9.94162,0 -11.44374,-0.37266 -16.62182,-4.12363 z"
       id="path14"
       transform="scale(0.26458333)" /><path
       style="fill:#c83737;fill-opacity:1;stroke:#000000;stroke-width:49.9718;stroke-linecap:round;stroke-miterlimit:128.2;stroke-dasharray:none;stroke-opacity:1;paint-order:markers stroke fill"
       d="m 277.96895,757.66627 c -24.0384,-27.89869 -45.44923,-58.42161 -59.16384,-84.34297 -16.68575,-31.537 -21.50279,-53.96453 -16.58003,-77.19455 7.10848,-33.54415 36.68704,-62.23358 71.44307,-69.29545 20.6564,-4.19706 37.00099,-1.82535 57.6433,8.36441 23.64985,11.67439 41.97584,34.43661 47.79987,59.37093 3.07539,13.16662 2.14012,35.32984 -2.0029,47.46291 -10.84294,31.75418 -42.73579,81.5652 -76.24833,119.0865 -4.57825,5.1259 -9.12568,9.31982 -10.10541,9.31982 -0.97972,0 -6.7333,-5.74722 -12.78573,-12.7716 z m 36.47831,-93.48098 c 15.70339,-7.42895 27.81672,-24.10484 30.75275,-42.33596 4.53851,-28.18147 -17.36445,-57.2445 -46.07809,-61.14103 -23.72682,-3.2198 -47.56124,9.45788 -57.57469,30.62435 -3.73309,7.89104 -4.06141,9.81836 -4.05001,23.775 0.0143,17.50775 2.3451,24.30247 12.10231,35.28038 12.31985,13.86116 21.38662,17.73186 41.73092,17.81538 13.25729,0.0544 15.23483,-0.28931 23.11681,-4.01812 z"
       id="path15"
       transform="scale(0.26458333)" /></g></svg>
